<svg width="32" height="32" viewBox="0 0 32 32" fill="none" xmlns="http://www.w3.org/2000/svg">
<g clip-path="url(#clip0_1040_759)">
<path d="M16 26.6666H6.66667C5.95942 26.6666 5.28115 26.3857 4.78105 25.8856C4.28095 25.3855 4 24.7072 4 24V12C4 11.2927 4.28095 10.6145 4.78105 10.1144C5.28115 9.61426 5.95942 9.33331 6.66667 9.33331H8C8.70724 9.33331 9.38552 9.05236 9.88562 8.55226C10.3857 8.05217 10.6667 7.37389 10.6667 6.66665C10.6667 6.31302 10.8071 5.97389 11.0572 5.72384C11.3072 5.47379 11.6464 5.33331 12 5.33331H20C20.3536 5.33331 20.6928 5.47379 20.9428 5.72384C21.1929 5.97389 21.3333 6.31302 21.3333 6.66665C21.3333 7.37389 21.6143 8.05217 22.1144 8.55226C22.6145 9.05236 23.2928 9.33331 24 9.33331H25.3333C26.0406 9.33331 26.7189 9.61426 27.219 10.1144C27.719 10.6145 28 11.2927 28 12V16.6666" stroke="#6B3FA0" stroke-width="2" stroke-linecap="round" stroke-linejoin="round"/>
<path d="M21.333 25.3333H29.333" stroke="#6B3FA0" stroke-width="2" stroke-linecap="round" stroke-linejoin="round"/>
<path d="M25.333 21.3333V29.3333" stroke="#6B3FA0" stroke-width="2" stroke-linecap="round" stroke-linejoin="round"/>
<path d="M12 17.3333C12 18.3942 12.4214 19.4116 13.1716 20.1617C13.9217 20.9119 14.9391 21.3333 16 21.3333C17.0609 21.3333 18.0783 20.9119 18.8284 20.1617C19.5786 19.4116 20 18.3942 20 17.3333C20 16.2724 19.5786 15.255 18.8284 14.5049C18.0783 13.7547 17.0609 13.3333 16 13.3333C14.9391 13.3333 13.9217 13.7547 13.1716 14.5049C12.4214 15.255 12 16.2724 12 17.3333Z" stroke="#6B3FA0" stroke-width="2" stroke-linecap="round" stroke-linejoin="round"/>
</g>
<defs>
<clipPath id="clip0_1040_759">
<rect width="32" height="32" fill="white"/>
</clipPath>
</defs>
</svg>
