<svg width="40" height="40" viewBox="0 0 40 40" fill="none" xmlns="http://www.w3.org/2000/svg">
<circle cx="20" cy="20" r="20" fill="#1D9A89" fill-opacity="0.1"/>
<path fill-rule="evenodd" clip-rule="evenodd" d="M12.5 11.75C12.3011 11.75 12.1103 11.829 11.9697 11.9697C11.829 12.1103 11.75 12.3011 11.75 12.5V27.5C11.75 27.914 12.086 28.25 12.5 28.25H27.5C27.6989 28.25 27.8897 28.171 28.0303 28.0303C28.171 27.8897 28.25 27.6989 28.25 27.5V12.5C28.25 12.3011 28.171 12.1103 28.0303 11.9697C27.8897 11.829 27.6989 11.75 27.5 11.75H12.5ZM10.25 12.5C10.25 11.9033 10.4871 11.331 10.909 10.909C11.331 10.4871 11.9033 10.25 12.5 10.25H27.5C28.0967 10.25 28.669 10.4871 29.091 10.909C29.5129 11.331 29.75 11.9033 29.75 12.5V27.5C29.75 28.0967 29.5129 28.669 29.091 29.091C28.669 29.5129 28.0967 29.75 27.5 29.75H12.5C11.9033 29.75 11.331 29.5129 10.909 29.091C10.4871 28.669 10.25 28.0967 10.25 27.5V12.5Z" fill="#1D9A89"/>
<path d="M19.4748 25.648C18.3388 25.648 17.4508 25.376 16.8108 24.832C16.1708 24.296 15.8508 23.532 15.8508 22.54C15.8508 21.9 16.0388 21.324 16.4148 20.812C16.7908 20.3 17.3668 19.864 18.1428 19.504V19.444C17.1828 18.86 16.7028 18.096 16.7028 17.152C16.7028 16.784 16.7628 16.436 16.8828 16.108C17.0108 15.78 17.1908 15.492 17.4228 15.244C17.6548 14.988 17.9348 14.788 18.2628 14.644C18.5908 14.492 18.9588 14.416 19.3668 14.416C19.9188 14.416 20.3908 14.54 20.7828 14.788C21.1748 15.028 21.4948 15.356 21.7428 15.772L20.6628 16.78C20.4788 16.5 20.2708 16.3 20.0388 16.18C19.8068 16.052 19.5228 15.988 19.1868 15.988C18.7548 15.988 18.4148 16.092 18.1668 16.3C17.9188 16.5 17.7948 16.788 17.7948 17.164C17.7948 17.58 17.9548 17.888 18.2748 18.088C18.5948 18.288 19.0508 18.388 19.6428 18.388C20.0428 18.388 20.5148 18.34 21.0588 18.244L22.0308 18.076L22.2708 19.516L20.6988 19.804C19.4348 20.028 18.5108 20.332 17.9268 20.716C17.3428 21.1 17.0508 21.604 17.0508 22.228V22.396C17.0508 22.948 17.2628 23.364 17.6868 23.644C18.1188 23.924 18.7148 24.064 19.4748 24.064C20.0268 24.064 20.5668 23.96 21.0948 23.752C21.6228 23.552 22.0908 23.26 22.4988 22.876L23.3268 24.112C22.8228 24.616 22.2428 24.996 21.5868 25.252C20.9308 25.516 20.2268 25.648 19.4748 25.648Z" fill="#1D9A89"/>
</svg>
