<svg width="21" height="23" viewBox="0 0 21 23" fill="none" xmlns="http://www.w3.org/2000/svg">
<path d="M19.5 9.5C19.5 7.17936 18.5781 4.95376 16.9372 3.31282C15.2962 1.67187 13.0706 0.75 10.75 0.75C8.42936 0.75 6.20376 1.67187 4.56282 3.31282C2.92187 4.95376 2 7.17936 2 9.5C1.60985 9.49982 1.23498 9.65167 0.954938 9.92331C0.674892 10.195 0.511704 10.565 0.5 10.955V15.045C0.5 15.4309 0.653294 15.801 0.92616 16.0738C1.19903 16.3467 1.56911 16.5 1.955 16.5H2.955C3.55298 17.6686 4.40724 18.687 5.45398 19.4792C6.50072 20.2714 7.71289 20.8169 9 21.075C9.02055 21.5603 9.21699 22.0215 9.55267 22.3726C9.88835 22.7236 10.3403 22.9406 10.8242 22.9828C11.3081 23.0251 11.7908 22.8898 12.1823 22.6023C12.5737 22.3147 12.8471 21.8945 12.9515 21.4201C13.0559 20.9458 12.984 20.4496 12.7494 20.0243C12.5148 19.599 12.1334 19.2736 11.6764 19.1089C11.2195 18.9442 10.7182 18.9514 10.2662 19.1292C9.8142 19.3069 9.44232 19.6431 9.22 20.075C8.10453 19.8553 7.05159 19.3912 6.13691 18.716C5.22223 18.0408 4.46853 17.1713 3.93 16.17C4.10332 16.0373 4.24455 15.8672 4.34322 15.6725C4.4419 15.4777 4.49548 15.2633 4.5 15.045V10.955C4.4883 10.565 4.32511 10.195 4.04506 9.92331C3.76502 9.65167 3.39015 9.49982 3 9.5C3 7.44457 3.81652 5.47333 5.26992 4.01992C6.72333 2.56652 8.69457 1.75 10.75 1.75C12.8054 1.75 14.7767 2.56652 16.2301 4.01992C17.6835 5.47333 18.5 7.44457 18.5 9.5C18.5 9.5 16.925 9.465 17 10.955V15.045C17 15.4309 17.1533 15.801 17.4262 16.0738C17.699 16.3467 18.0691 16.5 18.455 16.5H19.545C19.9309 16.5 20.301 16.3467 20.5738 16.0738C20.8467 15.801 21 15.4309 21 15.045V10.955C21.016 10.756 20.9877 10.5559 20.9173 10.369C20.8469 10.1821 20.7361 10.0132 20.5928 9.87414C20.4494 9.73511 20.2772 9.62948 20.0882 9.5648C19.8993 9.50012 19.6985 9.47799 19.5 9.5ZM11 20C11.1978 20 11.3911 20.0586 11.5556 20.1685C11.72 20.2784 11.8482 20.4346 11.9239 20.6173C11.9996 20.8 12.0194 21.0011 11.9808 21.1951C11.9422 21.3891 11.847 21.5673 11.7071 21.7071C11.5673 21.847 11.3891 21.9422 11.1951 21.9808C11.0011 22.0194 10.8 21.9996 10.6173 21.9239C10.4346 21.8482 10.2784 21.72 10.1685 21.5556C10.0586 21.3911 10 21.1978 10 21C10 20.7348 10.1054 20.4804 10.2929 20.2929C10.4804 20.1054 10.7348 20 11 20ZM3.5 10.955V15.045C3.5 15.1657 3.45206 15.2814 3.36673 15.3667C3.2814 15.4521 3.16567 15.5 3.045 15.5H1.955C1.83433 15.5 1.7186 15.4521 1.63327 15.3667C1.54794 15.2814 1.5 15.1657 1.5 15.045V10.955C1.5 10.8343 1.54794 10.7186 1.63327 10.6333C1.7186 10.5479 1.83433 10.5 1.955 10.5H3.045C3.16567 10.5 3.2814 10.5479 3.36673 10.6333C3.45206 10.7186 3.5 10.8343 3.5 10.955ZM20 15.045C20 15.1657 19.9521 15.2814 19.8667 15.3667C19.7814 15.4521 19.6657 15.5 19.545 15.5H18.455C18.3343 15.5 18.2186 15.4521 18.1333 15.3667C18.0479 15.2814 18 15.1657 18 15.045V10.955C18 10.8343 18.0479 10.7186 18.1333 10.6333C18.2186 10.5479 18.3343 10.5 18.455 10.5H19.545C19.6657 10.5 19.7814 10.5479 19.8667 10.6333C19.9521 10.7186 20 10.8343 20 10.955V15.045Z" fill="#90908F"/>
</svg>
