<svg width="28" height="30" viewBox="0 0 28 30" fill="none" xmlns="http://www.w3.org/2000/svg">
<path d="M20.6813 29.2979C22.0139 29.2979 23.0941 28.2176 23.0941 26.8851C23.0941 25.5526 22.0139 24.4723 20.6813 24.4723C19.3488 24.4723 18.2686 25.5526 18.2686 26.8851C18.2686 28.2176 19.3488 29.2979 20.6813 29.2979Z" fill="#6B3FA0"/>
<path d="M9.65105 29.2979C10.9836 29.2979 12.0638 28.2176 12.0638 26.8851C12.0638 25.5526 10.9836 24.4723 9.65105 24.4723C8.31851 24.4723 7.23828 25.5526 7.23828 26.8851C7.23828 28.2176 8.31851 29.2979 9.65105 29.2979Z" fill="#6B3FA0"/>
<path d="M4.94961 3.70876L4.67387 7.08663C4.61872 7.73463 5.12885 8.27234 5.77685 8.27234H26.8851C27.4642 8.27234 27.9467 7.83114 27.9881 7.25208C28.1673 4.81174 26.306 2.82638 23.8657 2.82638H6.92119C6.78331 2.21974 6.50757 1.64068 6.08017 1.15813C5.3908 0.427404 4.4257 0 3.43302 0H1.03404C0.468766 0 0 0.468766 0 1.03404C0 1.59932 0.468766 2.06808 1.03404 2.06808H3.43302C3.86042 2.06808 4.26025 2.24732 4.54978 2.55064C4.83932 2.86774 4.97719 3.28136 4.94961 3.70876Z" fill="#6B3FA0"/>
<path d="M26.5539 10.3404H5.40419C4.82513 10.3404 4.35637 10.7816 4.30122 11.3469L3.80488 17.3443C3.61185 19.702 5.45934 21.7149 7.81696 21.7149H23.1484C25.2165 21.7149 27.0364 20.0191 27.1881 17.951L27.6431 11.5123C27.6982 10.8781 27.2019 10.3404 26.5539 10.3404Z" fill="#6B3FA0"/>
</svg>
