<svg width="27" height="29" viewBox="0 0 27 29" fill="none" xmlns="http://www.w3.org/2000/svg">
<path d="M1 1.63806H3.23173C4.61693 1.63806 5.70713 2.83088 5.59169 4.20325L4.52714 16.9779C4.34757 19.0685 6.00211 20.8642 8.10557 20.8642H21.7652C23.6122 20.8642 25.2282 19.3507 25.3693 17.5166L26.0619 7.89713C26.2158 5.76802 24.5998 4.03652 22.4578 4.03652H5.89953" stroke="#666666" stroke-width="1.76" stroke-miterlimit="10" stroke-linecap="round" stroke-linejoin="round"/>
<path d="M19.2771 27.29C20.1626 27.29 20.8803 26.5722 20.8803 25.6867C20.8803 24.8012 20.1626 24.0835 19.2771 24.0835C18.3916 24.0835 17.6738 24.8012 17.6738 25.6867C17.6738 26.5722 18.3916 27.29 19.2771 27.29Z" stroke="#666666" stroke-width="1.76" stroke-miterlimit="10" stroke-linecap="round" stroke-linejoin="round"/>
<path d="M9.01633 27.29C9.90178 27.29 10.6196 26.5722 10.6196 25.6867C10.6196 24.8012 9.90178 24.0835 9.01633 24.0835C8.13088 24.0835 7.41309 24.8012 7.41309 25.6867C7.41309 26.5722 8.13088 27.29 9.01633 27.29Z" stroke="#666666" stroke-width="1.76" stroke-miterlimit="10" stroke-linecap="round" stroke-linejoin="round"/>
<path d="M9.97803 9.33362H25.3692" stroke="#666666" stroke-width="1.76" stroke-miterlimit="10" stroke-linecap="round" stroke-linejoin="round"/>
</svg>
