<svg width="28" height="28" viewBox="0 0 28 28" fill="none" xmlns="http://www.w3.org/2000/svg">
<g clip-path="url(#clip0_740_3810)">
<path d="M24.5001 16.3333L21.0001 12.8333H12.8334C12.524 12.8333 12.2272 12.7104 12.0085 12.4916C11.7897 12.2728 11.6667 11.9761 11.6667 11.6667V4.66667C11.6667 4.35725 11.7897 4.0605 12.0085 3.84171C12.2272 3.62292 12.524 3.5 12.8334 3.5H23.3334C23.6428 3.5 23.9396 3.62292 24.1584 3.84171C24.3772 4.0605 24.5001 4.35725 24.5001 4.66667V16.3333Z" stroke="#666666" stroke-width="1.75" stroke-linecap="round" stroke-linejoin="round"/>
<path d="M16.3333 17.5V19.8333C16.3333 20.1427 16.2104 20.4395 15.9916 20.6583C15.7728 20.877 15.4761 21 15.1667 21H7L3.5 24.5V12.8333C3.5 12.5239 3.62292 12.2271 3.84171 12.0083C4.0605 11.7895 4.35725 11.6666 4.66667 11.6666H7" stroke="#666666" stroke-width="1.75" stroke-linecap="round" stroke-linejoin="round"/>
</g>
<defs>
<clipPath id="clip0_740_3810">
<rect width="28" height="28" fill="white"/>
</clipPath>
</defs>
</svg>
