<svg width="28" height="28" viewBox="0 0 28 28" fill="none" xmlns="http://www.w3.org/2000/svg">
<g clip-path="url(#clip0_1719_1341)">
<path d="M5.8335 19.8333C5.8335 20.4522 6.07933 21.0457 6.51691 21.4832C6.9545 21.9208 7.54799 22.1667 8.16683 22.1667C8.78567 22.1667 9.37916 21.9208 9.81674 21.4832C10.2543 21.0457 10.5002 20.4522 10.5002 19.8333C10.5002 19.2145 10.2543 18.621 9.81674 18.1834C9.37916 17.7458 8.78567 17.5 8.16683 17.5C7.54799 17.5 6.9545 17.7458 6.51691 18.1834C6.07933 18.621 5.8335 19.2145 5.8335 19.8333Z" stroke="#6B3FA0" stroke-width="1.16667" stroke-linecap="round" stroke-linejoin="round"/>
<path d="M17.5 19.8333C17.5 20.4522 17.7458 21.0457 18.1834 21.4832C18.621 21.9208 19.2145 22.1667 19.8333 22.1667C20.4522 22.1667 21.0457 21.9208 21.4832 21.4832C21.9208 21.0457 22.1667 20.4522 22.1667 19.8333C22.1667 19.2145 21.9208 18.621 21.4832 18.1834C21.0457 17.7458 20.4522 17.5 19.8333 17.5C19.2145 17.5 18.621 17.7458 18.1834 18.1834C17.7458 18.621 17.5 19.2145 17.5 19.8333Z" stroke="#6B3FA0" stroke-width="1.16667" stroke-linecap="round" stroke-linejoin="round"/>
<path d="M5.8335 19.8335H3.50016V15.1668M2.3335 5.8335H15.1668V19.8335M10.5002 19.8335H17.5002M22.1668 19.8335H24.5002V12.8335M24.5002 12.8335H15.1668M24.5002 12.8335L21.0002 7.00016H15.1668" stroke="#6B3FA0" stroke-width="1.16667" stroke-linecap="round" stroke-linejoin="round"/>
<path d="M3.5 10.5H8.16667" stroke="#6B3FA0" stroke-width="1.16667" stroke-linecap="round" stroke-linejoin="round"/>
</g>
<defs>
<clipPath id="clip0_1719_1341">
<rect width="28" height="28" fill="white"/>
</clipPath>
</defs>
</svg>
