<svg width="40" height="40" viewBox="0 0 40 40" fill="none" xmlns="http://www.w3.org/2000/svg">
<circle cx="20" cy="20" r="20" fill="#1D9A89" fill-opacity="0.1"/>
<path fill-rule="evenodd" clip-rule="evenodd" d="M12.5 11.75C12.3011 11.75 12.1103 11.829 11.9697 11.9697C11.829 12.1103 11.75 12.3011 11.75 12.5V27.5C11.75 27.914 12.086 28.25 12.5 28.25H27.5C27.6989 28.25 27.8897 28.171 28.0303 28.0303C28.171 27.8897 28.25 27.6989 28.25 27.5V12.5C28.25 12.3011 28.171 12.1103 28.0303 11.9697C27.8897 11.829 27.6989 11.75 27.5 11.75H12.5ZM10.25 12.5C10.25 11.9033 10.4871 11.331 10.909 10.909C11.331 10.4871 11.9033 10.25 12.5 10.25H27.5C28.0967 10.25 28.669 10.4871 29.091 10.909C29.5129 11.331 29.75 11.9033 29.75 12.5V27.5C29.75 28.0967 29.5129 28.669 29.091 29.091C28.669 29.5129 28.0967 29.75 27.5 29.75H12.5C11.9033 29.75 11.331 29.5129 10.909 29.091C10.4871 28.669 10.25 28.0967 10.25 27.5V12.5Z" fill="#1D9A89"/>
<path fill-rule="evenodd" clip-rule="evenodd" d="M13.75 16.5C13.75 16.3011 13.829 16.1103 13.9697 15.9697C14.1103 15.829 14.3011 15.75 14.5 15.75H18.5C18.6989 15.75 18.8897 15.829 19.0303 15.9697C19.171 16.1103 19.25 16.3011 19.25 16.5C19.25 16.6989 19.171 16.8897 19.0303 17.0303C18.8897 17.171 18.6989 17.25 18.5 17.25H15.25V23.5C15.25 23.6989 15.171 23.8897 15.0303 24.0303C14.8897 24.171 14.6989 24.25 14.5 24.25C14.3011 24.25 14.1103 24.171 13.9697 24.0303C13.829 23.8897 13.75 23.6989 13.75 23.5V16.5Z" fill="#1D9A89"/>
<path fill-rule="evenodd" clip-rule="evenodd" d="M13.75 20C13.75 19.8011 13.829 19.6103 13.9697 19.4697C14.1103 19.329 14.3011 19.25 14.5 19.25H18.25C18.4489 19.25 18.6397 19.329 18.7803 19.4697C18.921 19.6103 19 19.8011 19 20C19 20.1989 18.921 20.3897 18.7803 20.5303C18.6397 20.671 18.4489 20.75 18.25 20.75H14.5C14.3011 20.75 14.1103 20.671 13.9697 20.5303C13.829 20.3897 13.75 20.1989 13.75 20ZM13.75 23.5C13.75 23.3011 13.829 23.1103 13.9697 22.9697C14.1103 22.829 14.3011 22.75 14.5 22.75H18.25C18.4489 22.75 18.6397 22.829 18.7803 22.9697C18.921 23.1103 19 23.3011 19 23.5C19 23.6989 18.921 23.8897 18.7803 24.0303C18.6397 24.171 18.4489 24.25 18.25 24.25H14.5C14.3011 24.25 14.1103 24.171 13.9697 24.0303C13.829 23.8897 13.75 23.6989 13.75 23.5ZM21 16.75C21.1989 16.75 21.3897 16.829 21.5303 16.9697C21.671 17.1103 21.75 17.3011 21.75 17.5V23.5C21.75 23.6989 21.671 23.8897 21.5303 24.0303C21.3897 24.171 21.1989 24.25 21 24.25C20.8011 24.25 20.6103 24.171 20.4697 24.0303C20.329 23.8897 20.25 23.6989 20.25 23.5V17.5C20.25 17.3011 20.329 17.1103 20.4697 16.9697C20.6103 16.829 20.8011 16.75 21 16.75Z" fill="#1D9A89"/>
<path fill-rule="evenodd" clip-rule="evenodd" d="M23.25 18.75C22.8522 18.75 22.4706 18.908 22.1893 19.1893C21.908 19.4706 21.75 19.8522 21.75 20.25V23.5C21.75 23.6989 21.671 23.8897 21.5303 24.0303C21.3897 24.171 21.1989 24.25 21 24.25C20.8011 24.25 20.6103 24.171 20.4697 24.0303C20.329 23.8897 20.25 23.6989 20.25 23.5V20.25C20.25 19.4544 20.5661 18.6913 21.1287 18.1287C21.6913 17.5661 22.4544 17.25 23.25 17.25C24.0456 17.25 24.8087 17.5661 25.3713 18.1287C25.9339 18.6913 26.25 19.4544 26.25 20.25V23.5C26.25 23.6989 26.171 23.8897 26.0303 24.0303C25.8897 24.171 25.6989 24.25 25.5 24.25C25.3011 24.25 25.1103 24.171 24.9697 24.0303C24.829 23.8897 24.75 23.6989 24.75 23.5V20.25C24.75 19.8522 24.592 19.4706 24.3107 19.1893C24.0294 18.908 23.6478 18.75 23.25 18.75Z" fill="#1D9A89"/>
</svg>
