<svg width="22" height="22" viewBox="0 0 22 22" fill="none" xmlns="http://www.w3.org/2000/svg">
<g id="Frame" clip-path="url(#clip0_740_4043)">
<path id="Vector" d="M17.875 11.5244L11 18.3334L4.12501 11.5244C3.67154 11.0831 3.31435 10.5527 3.07593 9.96662C2.83751 9.38053 2.72303 8.75141 2.73969 8.1189C2.75635 7.48638 2.90379 6.86416 3.17274 6.29143C3.44168 5.7187 3.8263 5.20786 4.30237 4.79107C4.77845 4.37429 5.33566 4.06059 5.93892 3.86973C6.54219 3.67887 7.17843 3.61499 7.8076 3.68211C8.43677 3.74922 9.04522 3.94588 9.59465 4.2597C10.1441 4.57352 10.6226 4.99771 11 5.50554C11.3791 5.00139 11.8581 4.58092 12.4072 4.27043C12.9562 3.95994 13.5635 3.76612 14.1909 3.7011C14.8183 3.63608 15.4523 3.70126 16.0534 3.89257C16.6544 4.08387 17.2095 4.39717 17.6839 4.81287C18.1583 5.22857 18.5418 5.73772 18.8104 6.30844C19.079 6.87917 19.2269 7.49918 19.2448 8.12969C19.2627 8.7602 19.1503 9.38762 18.9146 9.97269C18.6789 10.5578 18.325 11.0879 17.875 11.5299" stroke="black" stroke-width="1.83333" stroke-linecap="round" stroke-linejoin="round"/>
</g>
<defs>
<clipPath id="clip0_740_4043">
<rect width="22" height="22" fill="white"/>
</clipPath>
</defs>
</svg>
