<svg width="25" height="24" viewBox="0 0 25 24" fill="none" xmlns="http://www.w3.org/2000/svg">
<g clip-path="url(#clip0_544_1854)">
<path d="M22.5 6.75556V4.22222C22.5 3 21.5 2 20.2778 2H4.72222C3.48889 2 2.5 3 2.5 4.22222V19.7778C2.5 21 3.48889 22 4.72222 22H20.2778C21.5 22 22.5 21 22.5 19.7778V17.2444C22.5 15.3333 22.5 16.1556 22.5 15.3333V8.66667C22.5 7.84444 22.5 8.66667 22.5 6.75556ZM4.72222 19.7778V4.22222H20.2778V6.44444C20.2778 8.66667 20.2778 7.44444 20.2778 8.66667V15.3333C20.2778 16.5556 20.2778 15.3333 20.2778 17.5556V19.7778H4.72222Z" fill="#1D9A89"/>
<rect x="6.5" y="15" width="12" height="3" fill="#1D9A89"/>
</g>
<defs>
<clipPath id="clip0_544_1854">
<rect width="24" height="24" fill="white" transform="translate(0.5)"/>
</clipPath>
</defs>
</svg>
