<svg width="31" height="31" viewBox="0 0 31 31" fill="none" xmlns="http://www.w3.org/2000/svg">
<g clip-path="url(#clip0_740_3821)">
<path d="M5.16675 10.3333C5.16675 8.96301 5.71109 7.64885 6.68003 6.67991C7.64897 5.71097 8.96313 5.16663 10.3334 5.16663H20.6667C22.037 5.16663 23.3512 5.71097 24.3201 6.67991C25.2891 7.64885 25.8334 8.96301 25.8334 10.3333V20.6666C25.8334 22.0369 25.2891 23.3511 24.3201 24.32C23.3512 25.2889 22.037 25.8333 20.6667 25.8333H10.3334C8.96313 25.8333 7.64897 25.2889 6.68003 24.32C5.71109 23.3511 5.16675 22.0369 5.16675 20.6666V10.3333Z" stroke="white" stroke-width="1.75" stroke-linecap="round" stroke-linejoin="round"/>
<path d="M11.625 15.5C11.625 16.5277 12.0333 17.5133 12.76 18.24C13.4867 18.9667 14.4723 19.375 15.5 19.375C16.5277 19.375 17.5133 18.9667 18.24 18.24C18.9667 17.5133 19.375 16.5277 19.375 15.5C19.375 14.4723 18.9667 13.4867 18.24 12.76C17.5133 12.0333 16.5277 11.625 15.5 11.625C14.4723 11.625 13.4867 12.0333 12.76 12.76C12.0333 13.4867 11.625 14.4723 11.625 15.5Z" stroke="white" stroke-width="1.75" stroke-linecap="round" stroke-linejoin="round"/>
<path d="M21.3125 9.6875V9.70042" stroke="white" stroke-width="1.75" stroke-linecap="round" stroke-linejoin="round"/>
</g>
<defs>
<clipPath id="clip0_740_3821">
<rect width="31" height="31" fill="white"/>
</clipPath>
</defs>
</svg>
