<svg width="32" height="40" viewBox="0 0 32 40" fill="none" xmlns="http://www.w3.org/2000/svg">
<path d="M20 0H4C2.93913 0 1.92172 0.421427 1.17157 1.17157C0.421427 1.92172 0 2.93913 0 4V36C0 37.0609 0.421427 38.0783 1.17157 38.8284C1.92172 39.5786 2.93913 40 4 40H28C29.0609 40 30.0783 39.5786 30.8284 38.8284C31.5786 38.0783 32 37.0609 32 36V12L20 0ZM10.478 28.892C10.478 31.196 9.376 32 7.602 32C7.182 32 6.63 31.928 6.272 31.806L6.474 30.332C6.728 30.416 7.052 30.476 7.412 30.476C8.18 30.476 8.658 30.128 8.658 28.868V23.782H10.48L10.478 28.892ZM17.066 28.162C16.44 28.748 15.52 29.014 14.44 29.014C14.2 29.014 13.984 29 13.816 28.976V31.866H12.004V23.89C12.822 23.7668 13.6488 23.7113 14.476 23.724C15.602 23.724 16.406 23.938 16.944 24.37C17.462 24.778 17.81 25.45 17.81 26.242C17.81 27.034 17.544 27.706 17.066 28.162ZM25.728 31.496C25.168 31.688 24.098 31.952 23.03 31.952C21.556 31.952 20.488 31.58 19.744 30.86C19.002 30.164 18.594 29.11 18.604 27.922C18.618 25.234 20.57 23.7 23.222 23.7C24.264 23.7 25.07 23.906 25.464 24.096L25.082 25.558C24.638 25.366 24.088 25.21 23.2 25.21C21.678 25.21 20.524 26.074 20.524 27.826C20.524 29.492 21.57 30.476 23.066 30.476C23.488 30.476 23.822 30.428 23.968 30.354V28.662H22.72V27.236H25.728V31.496ZM20 14H18V4L28 14H20Z" fill="#1D9A89"/>
</svg>
