<svg width="40" height="40" viewBox="0 0 40 40" fill="none" xmlns="http://www.w3.org/2000/svg">
<circle cx="20" cy="20" r="20" fill="#1D9A89" fill-opacity="0.1"/>
<path d="M28.5801 27.3699L25.5901 19.0099C25.3801 18.4599 24.9101 18.1199 24.3701 18.1199C23.8301 18.1199 23.3701 18.4599 23.1401 19.0299L20.1601 27.3699C20.0201 27.7599 20.2201 28.1899 20.6101 28.3299C21.0001 28.4699 21.4301 28.2699 21.5701 27.8799L22.1901 26.1499H26.5401L27.1601 27.8799C27.2701 28.1899 27.5601 28.3799 27.8701 28.3799C27.9501 28.3799 28.0401 28.3699 28.1201 28.3399C28.5101 28.1999 28.7101 27.7699 28.5701 27.3799L28.5801 27.3699ZM22.7401 24.6399L24.3801 20.0499L26.0201 24.6399H22.7401ZM20.1901 15.8499C17.9301 19.4199 15.8901 21.5799 13.4101 23.0199C13.2901 23.0899 13.1601 23.1199 13.0401 23.1199C12.7801 23.1199 12.5301 22.9899 12.3901 22.7499C12.1801 22.3899 12.3001 21.9299 12.6601 21.7299C14.7601 20.5099 16.4801 18.7599 18.4101 15.8599H12.1201C11.7101 15.8599 11.3701 15.5199 11.3701 15.1099C11.3701 14.6999 11.7101 14.3599 12.1201 14.3599H15.8701V12.3799C15.8701 11.9699 16.2101 11.6299 16.6201 11.6299C17.0301 11.6299 17.3701 11.9699 17.3701 12.3799V14.3599H21.1201C21.5301 14.3599 21.8701 14.6999 21.8701 15.1099C21.8701 15.5199 21.5301 15.8599 21.1201 15.8599H20.1801L20.1901 15.8499ZM20.2301 23.1199C20.1001 23.1199 19.9701 23.0899 19.8501 23.0199C19.2001 22.6399 18.5701 22.2199 17.9801 21.7799C17.6501 21.5299 17.5801 21.0599 17.8301 20.7299C18.0801 20.3999 18.5501 20.3299 18.8801 20.5799C19.4201 20.9899 20.0101 21.3699 20.6101 21.7199C20.9701 21.9299 21.0901 22.3899 20.8801 22.7499C20.7401 22.9899 20.4901 23.1199 20.2301 23.1199Z" fill="#1D9A89"/>
</svg>
