<svg width="40" height="40" viewBox="0 0 40 40" fill="none" xmlns="http://www.w3.org/2000/svg">
<circle cx="20" cy="20" r="20" fill="#1D9A89" fill-opacity="0.1"/>
<path d="M20.2134 11C16.7873 11 14 13.7873 14 17.2133C14 21.4652 19.5604 27.7071 19.7971 27.9707C20.0195 28.2184 20.4077 28.218 20.6297 27.9707C20.8664 27.7071 26.4268 21.4652 26.4268 17.2133C26.4267 13.7873 23.6394 11 20.2134 11ZM20.2134 20.3395C18.4896 20.3395 17.0873 18.9371 17.0873 17.2133C17.0873 15.4896 18.4897 14.0873 20.2134 14.0873C21.9371 14.0873 23.3394 15.4896 23.3394 17.2134C23.3394 18.9371 21.9371 20.3395 20.2134 20.3395Z" fill="#1D9A89"/>
</svg>
