<svg width="40" height="40" viewBox="0 0 40 40" fill="none" xmlns="http://www.w3.org/2000/svg">
<circle cx="20" cy="20" r="20" fill="#1D9A89" fill-opacity="0.1"/>
<path d="M15.5 20C15.5 19.8011 15.579 19.6103 15.7197 19.4697C15.8603 19.329 16.0511 19.25 16.25 19.25H23V14.375C23 12.875 21.4161 11.75 20 11.75H12.875C12.179 11.7507 11.5118 12.0275 11.0197 12.5197C10.5275 13.0118 10.2507 13.679 10.25 14.375V25.625C10.2507 26.321 10.5275 26.9882 11.0197 27.4803C11.5118 27.9725 12.179 28.2493 12.875 28.25H20.375C21.071 28.2493 21.7382 27.9725 22.2303 27.4803C22.7225 26.9882 22.9993 26.321 23 25.625V20.75H16.25C16.0511 20.75 15.8603 20.671 15.7197 20.5303C15.579 20.3897 15.5 20.1989 15.5 20Z" fill="#1D9A89"/>
<path d="M29.5302 19.4699L25.7802 15.7199C25.6384 15.5852 25.4495 15.5112 25.254 15.5137C25.0584 15.5162 24.8715 15.595 24.7332 15.7333C24.5949 15.8716 24.5161 16.0585 24.5136 16.2541C24.5111 16.4496 24.5851 16.6385 24.7198 16.7803L27.1892 19.2501H23V20.7501H27.1892L24.7198 23.2199C24.6473 23.2889 24.5892 23.3717 24.5492 23.4634C24.5091 23.5551 24.4878 23.654 24.4865 23.7541C24.4852 23.8542 24.504 23.9535 24.5417 24.0462C24.5794 24.139 24.6353 24.2232 24.7061 24.294C24.7769 24.3648 24.8611 24.4207 24.9539 24.4584C25.0466 24.4961 25.1459 24.5149 25.246 24.5136C25.3461 24.5123 25.445 24.491 25.5367 24.4509C25.6284 24.4109 25.7112 24.3528 25.7802 24.2803L29.5302 20.5303C29.6707 20.3896 29.7497 20.1989 29.7497 20.0001C29.7497 19.8013 29.6707 19.6106 29.5302 19.4699Z" fill="#1D9A89"/>
</svg>
