<svg width="54" height="18" viewBox="0 0 54 18" fill="none" xmlns="http://www.w3.org/2000/svg">
<path d="M23.324 10.3591H0.834473V17.8512H23.324V10.3591Z" fill="#84B740"/>
<path d="M23.324 0.135254H0.834473V7.634H23.324V0.135254Z" fill="#259BD6"/>
<path d="M45.8133 16.3274L45.7132 16.3474C45.3659 16.4142 45.2391 16.4409 44.9853 16.4409C44.3977 16.4409 43.7033 16.1404 43.7033 14.7248C43.7033 13.997 43.8234 13.0288 44.9185 13.0288H44.9252C45.1122 13.0421 45.3259 13.0622 45.7265 13.1823L45.8133 13.2091V16.3274ZM45.9936 9.26938L45.8133 9.30277V11.9203L45.6531 11.8736L45.6063 11.8602C45.426 11.8068 45.012 11.6866 44.6114 11.6866C42.4212 11.6866 41.9604 13.3426 41.9604 14.7315C41.9604 16.6346 43.0288 17.7297 44.8918 17.7297C45.6798 17.7297 46.2607 17.6495 46.8483 17.4559C47.3892 17.2823 47.5828 17.0352 47.5828 16.5077V8.99561C47.062 9.08909 46.5211 9.18257 45.9936 9.26938Z" fill="#27292D"/>
<path d="M52.3235 16.3755L52.23 16.4022L51.8962 16.489C51.5823 16.5691 51.3019 16.6159 51.0882 16.6159C50.574 16.6159 50.2669 16.3621 50.2669 15.9281C50.2669 15.6476 50.3937 15.1735 51.2351 15.1735H52.3235V16.3755ZM51.5556 11.6545C50.8812 11.6545 50.1867 11.7747 49.3254 12.0418L48.7645 12.2088L48.9514 13.4775L49.499 13.2972C50.0732 13.1102 50.7877 12.99 51.3219 12.99C51.5623 12.99 52.2968 12.99 52.2968 13.7846V14.1319H51.2752C49.4122 14.1319 48.5508 14.7262 48.5508 16.0015C48.5508 17.09 49.3454 17.7443 50.6809 17.7443C51.0949 17.7443 51.6691 17.6642 52.1633 17.544L52.19 17.5373L52.2167 17.544L52.3836 17.5707C52.9045 17.6642 53.4453 17.7577 53.9728 17.8579V13.6912C53.9728 12.3423 53.1582 11.6545 51.5556 11.6545Z" fill="#27292D"/>
<path d="M39.3499 16.3755L39.2564 16.4022L38.9225 16.489C38.6087 16.5691 38.3349 16.6159 38.1146 16.6159C37.6004 16.6159 37.2932 16.3621 37.2932 15.9281C37.2932 15.6476 37.4201 15.1735 38.2548 15.1735H39.3432V16.3755H39.3499ZM38.5887 11.6545C37.9076 11.6545 37.2198 11.7747 36.3584 12.0418L35.7975 12.2088L35.9845 13.4775L36.532 13.2972C37.1063 13.1102 37.8208 12.99 38.355 12.99C38.5953 12.99 39.3299 12.99 39.3299 13.7846V14.1319H38.3082C36.4452 14.1319 35.5771 14.7262 35.5771 16.0015C35.5771 17.09 36.3718 17.7443 37.7139 17.7443C38.1279 17.7443 38.7022 17.6642 39.1963 17.544L39.223 17.5373L39.2497 17.544L39.41 17.5707C39.9375 17.6642 40.4717 17.7577 40.9992 17.8645V13.6978C41.0059 12.3356 40.1912 11.6545 38.5887 11.6545Z" fill="#27292D"/>
<path d="M32.3181 11.6671C31.4701 11.6671 30.7689 11.9475 30.5085 12.0677L30.4418 12.1011L30.3817 12.0544C30.0211 11.7939 29.4936 11.6604 28.759 11.6604C28.1113 11.6604 27.5037 11.7539 26.8426 11.9475C26.275 12.1211 26.0547 12.3949 26.0547 12.9091V17.6701H27.8309V13.2697L27.9177 13.2429C28.2783 13.1228 28.4919 13.1027 28.6989 13.1027C29.2131 13.1027 29.4735 13.3765 29.4735 13.9107V17.6768H31.223V13.8372C31.223 13.6102 31.1763 13.4767 31.1696 13.4499L31.1095 13.3364L31.2297 13.283C31.4968 13.1628 31.7906 13.1027 32.0978 13.1027C32.4517 13.1027 32.8723 13.2429 32.8723 13.9107V17.6768H34.6151V13.7371C34.6151 12.3415 33.8673 11.6671 32.3181 11.6671Z" fill="#27292D"/>
<path d="M51.0152 5.02313C50.7548 5.02313 50.3208 4.99642 49.9802 4.92964L49.88 4.90961V2.3388C49.88 2.12512 49.84 1.99158 49.8333 1.97154L49.7799 1.86471L49.8934 1.81796C49.9201 1.80461 49.9468 1.79793 49.9802 1.78458L50.0002 1.77122C50.0403 1.75787 50.0804 1.74451 50.1204 1.73116C50.1405 1.72448 50.1538 1.7178 50.1672 1.7178C50.5611 1.61096 50.9217 1.62432 51.082 1.61096H51.0887C52.1771 1.61096 52.304 2.57919 52.304 3.30703C52.2973 4.72264 51.5961 5.02313 51.0152 5.02313ZM51.0085 0.135254C50.9952 0.135254 50.9751 0.135254 50.9618 0.135254C49.9401 0.135254 48.8918 0.415707 48.5179 0.963255C48.3175 1.23035 48.204 1.56422 48.1973 1.95819V4.60912C48.1973 4.83616 48.1506 4.92296 48.1439 4.943L48.0838 5.05651H44.8586V3.21354H44.852C44.8119 1.27042 43.6634 0.202028 42.0007 0.202028H41.8071H40.3781C40.3113 0.676125 40.2579 1.01 40.1911 1.48409H41.8071C42.6551 1.48409 43.1025 2.20525 43.1025 3.31371V5.17003L42.989 5.10993C42.9689 5.10325 42.8287 5.05651 42.6083 5.05651H39.8172C39.7638 5.41042 39.697 5.87116 39.6235 6.3319H48.204C48.4978 6.2718 48.8384 6.21838 49.1322 6.17164C49.5662 6.38532 50.3742 6.49884 50.9284 6.49884C52.7914 6.49884 54 5.25016 54 3.32706C53.9933 1.424 52.8248 0.175318 51.0085 0.135254Z" fill="#27292D"/>
<path d="M35.964 7.11368H36.0441C37.9071 7.11368 38.7752 6.49936 38.7752 4.98358C38.7752 3.89516 37.9806 3.0271 36.6451 3.0271H34.929C34.4148 3.0271 34.1077 2.73329 34.1077 2.23916C34.1077 1.90529 34.2345 1.49129 35.0759 1.49129H38.8286C38.9087 1.00384 38.9488 0.69668 39.0222 0.209229H35.1226C33.3064 0.209229 32.3916 0.970454 32.3916 2.23916C32.3916 3.49452 33.1862 4.14891 34.5217 4.14891H36.2378C36.7519 4.14891 37.0591 4.55623 37.0591 4.98358C37.0591 5.26403 36.9322 5.84497 36.0975 5.84497H35.8104L30.3149 5.83162H29.3133C28.4652 5.83162 27.8709 5.35084 27.8709 4.23571V3.46781C27.8709 2.30594 28.3317 1.58478 29.3133 1.58478H30.9426C31.016 1.09065 31.0628 0.776809 31.1295 0.30939H29.0996H28.9059C27.2433 0.30939 26.0948 1.42452 26.0547 3.36765V3.4411V4.23571C26.0948 6.17884 27.2433 7.107 28.9059 7.107H29.0996H30.5286L33.5067 7.11368H35.2829H35.964Z" fill="#27292D"/>
</svg>
