<svg width="40" height="40" viewBox="0 0 40 40" fill="none" xmlns="http://www.w3.org/2000/svg">
<circle cx="20" cy="20" r="20" fill="#1D9A89" fill-opacity="0.1"/>
<path d="M23.6022 20.3857L21.5856 22.1785C20.7678 22.9056 19.3289 22.9212 18.4934 22.1785L16.4766 20.3857L9.2334 26.8239C9.50302 26.9344 9.80029 27.0003 10.1163 27.0003H29.9626C30.2787 27.0003 30.5759 26.9345 30.8454 26.824L23.6022 20.3857Z" fill="#1D9A89"/>
<path d="M29.9626 12H10.1163C9.80028 12 9.50301 12.0659 9.23348 12.1764L16.9734 19.0565C16.9739 19.057 16.9745 19.057 16.9751 19.0575C16.9754 19.0578 16.9756 19.0582 16.9757 19.0586L19.4923 21.2957C19.7596 21.5325 20.3194 21.5325 20.5867 21.2957L23.1029 19.059C23.1029 19.059 23.1035 19.058 23.104 19.0575C23.104 19.0575 23.1051 19.057 23.1056 19.0565L30.8454 12.1763C30.5758 12.0658 30.2787 12 29.9626 12ZM8.22508 13.0505C8.08559 13.3004 8 13.5778 8 13.875V25.125C8 25.4222 8.0855 25.6996 8.22503 25.9495L15.4808 19.5002L8.22508 13.0505ZM31.8539 13.0504L24.5982 19.5002L31.8539 25.9496C31.9934 25.6997 32.0789 25.4222 32.0789 25.125V13.875C32.0789 13.5777 31.9934 13.3003 31.8539 13.0504Z" fill="#1D9A89"/>
</svg>
