<svg width="23" height="18" viewBox="0 0 23 18" fill="none" xmlns="http://www.w3.org/2000/svg">
<path d="M4.18118 17.9105V16.7191C4.18118 16.2624 3.90506 15.9646 3.43171 15.9646C3.19504 15.9646 2.93864 16.044 2.76113 16.3022C2.62307 16.0837 2.42584 15.9646 2.13 15.9646C1.93277 15.9646 1.73554 16.0242 1.57776 16.2426V16.0043H1.16357V17.9105H1.57776V16.8581C1.57776 16.5206 1.75526 16.3617 2.03138 16.3617C2.3075 16.3617 2.44556 16.5404 2.44556 16.8581V17.9105H2.85975V16.8581C2.85975 16.5206 3.05698 16.3617 3.31337 16.3617C3.58949 16.3617 3.72755 16.5404 3.72755 16.8581V17.9105H4.18118ZM10.315 16.0043H9.64443V15.4285H9.23025V16.0043H8.85552V16.3816H9.23025V17.2553C9.23025 17.6921 9.40776 17.9502 9.88111 17.9502C10.0586 17.9502 10.2558 17.8907 10.3939 17.8112L10.2756 17.4538C10.1572 17.5333 10.0192 17.5531 9.92055 17.5531C9.72332 17.5531 9.64443 17.434 9.64443 17.2354V16.3816H10.315V16.0043ZM13.8257 15.9646C13.589 15.9646 13.4312 16.0837 13.3326 16.2426V16.0043H12.9184V17.9105H13.3326V16.8383C13.3326 16.5206 13.4707 16.3419 13.7271 16.3419C13.806 16.3419 13.9046 16.3617 13.9835 16.3816L14.1018 15.9844C14.0229 15.9646 13.9046 15.9646 13.8257 15.9646ZM8.52023 16.1632C8.323 16.0242 8.04688 15.9646 7.75103 15.9646C7.27768 15.9646 6.96211 16.2029 6.96211 16.5801C6.96211 16.8978 7.19879 17.0766 7.61297 17.1361L7.8102 17.156C8.02715 17.1957 8.14549 17.2553 8.14549 17.3545C8.14549 17.4935 7.98771 17.5928 7.71159 17.5928C7.43546 17.5928 7.21851 17.4935 7.08045 17.3943L6.88322 17.712C7.10018 17.8708 7.39602 17.9502 7.69186 17.9502C8.2441 17.9502 8.55967 17.6921 8.55967 17.3347C8.55967 16.9971 8.30327 16.8184 7.90881 16.7588L7.71159 16.739C7.53408 16.7191 7.39602 16.6794 7.39602 16.5603C7.39602 16.4213 7.53408 16.3419 7.75103 16.3419C7.98771 16.3419 8.22438 16.4411 8.34272 16.5007L8.52023 16.1632ZM19.5256 15.9646C19.2889 15.9646 19.1312 16.0837 19.0325 16.2426V16.0043H18.6184V17.9105H19.0325V16.8383C19.0325 16.5206 19.1706 16.3419 19.427 16.3419C19.5059 16.3419 19.6045 16.3617 19.6834 16.3816L19.8017 15.9844C19.7228 15.9646 19.6045 15.9646 19.5256 15.9646ZM14.2399 16.9574C14.2399 17.5333 14.6343 17.9502 15.2457 17.9502C15.5219 17.9502 15.7191 17.8907 15.9163 17.7318L15.7191 17.3943C15.5613 17.5134 15.4035 17.573 15.226 17.573C14.8907 17.573 14.6541 17.3347 14.6541 16.9574C14.6541 16.6 14.8907 16.3617 15.226 16.3419C15.4035 16.3419 15.5613 16.4014 15.7191 16.5206L15.9163 16.183C15.7191 16.0242 15.5219 15.9646 15.2457 15.9646C14.6343 15.9646 14.2399 16.3816 14.2399 16.9574ZM18.0661 16.9574V16.0043H17.6519V16.2426C17.5139 16.0639 17.3167 15.9646 17.0603 15.9646C16.5277 15.9646 16.1136 16.3816 16.1136 16.9574C16.1136 17.5333 16.5277 17.9502 17.0603 17.9502C17.3364 17.9502 17.5336 17.851 17.6519 17.6722V17.9105H18.0661V16.9574ZM16.5475 16.9574C16.5475 16.6199 16.7644 16.3419 17.1194 16.3419C17.4547 16.3419 17.6914 16.6 17.6914 16.9574C17.6914 17.295 17.4547 17.573 17.1194 17.573C16.7644 17.5531 16.5475 17.295 16.5475 16.9574ZM11.597 15.9646C11.0448 15.9646 10.6503 16.3617 10.6503 16.9574C10.6503 17.5531 11.0448 17.9502 11.6167 17.9502C11.8928 17.9502 12.169 17.8708 12.3859 17.6921L12.1887 17.3943C12.0309 17.5134 11.8337 17.5928 11.6364 17.5928C11.3801 17.5928 11.1237 17.4737 11.0645 17.1361H12.4648V16.9773C12.4845 16.3617 12.1295 15.9646 11.597 15.9646ZM11.597 16.322C11.8534 16.322 12.0309 16.4809 12.0704 16.7787H11.0842C11.1237 16.5206 11.3012 16.322 11.597 16.322ZM21.8726 16.9574V15.2498H21.4585V16.2426C21.3204 16.0639 21.1232 15.9646 20.8668 15.9646C20.3343 15.9646 19.9201 16.3816 19.9201 16.9574C19.9201 17.5333 20.3343 17.9502 20.8668 17.9502C21.1429 17.9502 21.3401 17.851 21.4585 17.6722V17.9105H21.8726V16.9574ZM20.354 16.9574C20.354 16.6199 20.5709 16.3419 20.9259 16.3419C21.2612 16.3419 21.4979 16.6 21.4979 16.9574C21.4979 17.295 21.2612 17.573 20.9259 17.573C20.5709 17.5531 20.354 17.295 20.354 16.9574ZM6.50849 16.9574V16.0043H6.09431V16.2426C5.95625 16.0639 5.75902 15.9646 5.50262 15.9646C4.9701 15.9646 4.55592 16.3816 4.55592 16.9574C4.55592 17.5333 4.9701 17.9502 5.50262 17.9502C5.77874 17.9502 5.97597 17.851 6.09431 17.6722V17.9105H6.50849V16.9574ZM4.9701 16.9574C4.9701 16.6199 5.18705 16.3419 5.54206 16.3419C5.87735 16.3419 6.11403 16.6 6.11403 16.9574C6.11403 17.295 5.87735 17.573 5.54206 17.573C5.18705 17.5531 4.9701 17.295 4.9701 16.9574Z" fill="black"/>
<path d="M14.595 1.52905H8.38232V12.7678H14.595V1.52905Z" fill="#FF5F00"/>
<path d="M8.7767 7.14834C8.7767 4.86485 9.84174 2.83948 11.4787 1.52895C10.2756 0.575839 8.75698 0 7.10025 0C3.17539 0 0 3.1969 0 7.14834C0 11.0998 3.17539 14.2967 7.10025 14.2967C8.75698 14.2967 10.2756 13.7208 11.4787 12.7677C9.84174 11.4771 8.7767 9.43184 8.7767 7.14834Z" fill="#EB001B"/>
<path d="M22.9773 7.14834C22.9773 11.0998 19.8019 14.2967 15.877 14.2967C14.2203 14.2967 12.7016 13.7208 11.4985 12.7677C13.1553 11.4572 14.2006 9.43184 14.2006 7.14834C14.2006 4.86485 13.1355 2.83948 11.4985 1.52895C12.7016 0.575839 14.2203 0 15.877 0C19.8019 0 22.9773 3.21676 22.9773 7.14834Z" fill="#F79E1B"/>
</svg>
