<svg width="31" height="30" viewBox="0 0 31 30" fill="none" xmlns="http://www.w3.org/2000/svg">
<path d="M8.79961 2.49634H22.5337C22.7275 2.49634 22.9187 2.54147 23.092 2.62815C23.2654 2.71484 23.4162 2.8407 23.5325 2.99576L26.9036 7.49054V26.2188C26.9036 26.5499 26.772 26.8675 26.5379 27.1017C26.3038 27.3358 25.9862 27.4673 25.655 27.4673H5.67824C5.3471 27.4673 5.02953 27.3358 4.79538 27.1017C4.56123 26.8675 4.42969 26.5499 4.42969 26.2188V7.49054L7.80077 2.99576C7.91707 2.8407 8.06788 2.71484 8.24124 2.62815C8.41461 2.54147 8.60578 2.49634 8.79961 2.49634ZM23.7822 7.49054L21.9094 4.99344H9.42389L7.55106 7.49054H23.7822ZM11.921 12.4847H9.42389V14.9818C9.42389 16.6375 10.0816 18.2254 11.2523 19.3961C12.4231 20.5669 14.011 21.2246 15.6666 21.2246C17.3223 21.2246 18.9102 20.5669 20.0809 19.3961C21.2517 18.2254 21.9094 16.6375 21.9094 14.9818V12.4847H19.4123V14.9818C19.4123 15.9753 19.0177 16.928 18.3152 17.6304C17.6128 18.3329 16.66 18.7275 15.6666 18.7275C14.6732 18.7275 13.7205 18.3329 13.0181 17.6304C12.3156 16.928 11.921 15.9753 11.921 14.9818V12.4847Z" fill="#6B3FA0"/>
</svg>
