<svg width="30" height="29" viewBox="0 0 30 29" fill="none" xmlns="http://www.w3.org/2000/svg">
<path d="M8.31144 2.41016H21.5701C21.7572 2.41016 21.9418 2.45372 22.1091 2.53741C22.2765 2.62109 22.4221 2.74259 22.5344 2.89229L25.7888 7.23149V25.3115C25.7888 25.6311 25.6618 25.9377 25.4357 26.1638C25.2097 26.3898 24.9031 26.5168 24.5834 26.5168H5.29811C4.97843 26.5168 4.67185 26.3898 4.44581 26.1638C4.21976 25.9377 4.09277 25.6311 4.09277 25.3115V7.23149L7.34717 2.89229C7.45944 2.74259 7.60503 2.62109 7.7724 2.53741C7.93976 2.45372 8.12432 2.41016 8.31144 2.41016ZM23.3781 9.64215H6.50344V24.1061H23.3781V9.64215ZM22.7754 7.23149L20.9674 4.82082H8.9141L7.1061 7.23149H22.7754ZM11.3248 12.0528V14.4635C11.3248 15.4225 11.7057 16.3422 12.3839 17.0204C13.062 17.6985 13.9817 18.0795 14.9408 18.0795C15.8998 18.0795 16.8195 17.6985 17.4977 17.0204C18.1758 16.3422 18.5568 15.4225 18.5568 14.4635V12.0528H20.9674V14.4635C20.9674 16.0619 20.3325 17.5948 19.2023 18.725C18.072 19.8552 16.5391 20.4901 14.9408 20.4901C13.3424 20.4901 11.8095 19.8552 10.6793 18.725C9.54905 17.5948 8.9141 16.0619 8.9141 14.4635V12.0528H11.3248Z" fill="#666666"/>
</svg>
