<svg width="29" height="29" viewBox="0 0 29 29" fill="none" xmlns="http://www.w3.org/2000/svg">
<g clip-path="url(#clip0_1046_2738)">
<path d="M9.6665 8.45833C9.6665 9.74021 10.1757 10.9696 11.0822 11.876C11.9886 12.7824 13.218 13.2917 14.4998 13.2917C15.7817 13.2917 17.0111 12.7824 17.9175 11.876C18.8239 10.9696 19.3332 9.74021 19.3332 8.45833C19.3332 7.17645 18.8239 5.94708 17.9175 5.04065C17.0111 4.13422 15.7817 3.625 14.4998 3.625C13.218 3.625 11.9886 4.13422 11.0822 5.04065C10.1757 5.94708 9.6665 7.17645 9.6665 8.45833Z" stroke="black" stroke-width="1.83333" stroke-linecap="round" stroke-linejoin="round"/>
<path d="M7.25 25.375V22.9583C7.25 21.6765 7.75922 20.4471 8.66565 19.5407C9.57208 18.6342 10.8015 18.125 12.0833 18.125H16.9167C18.1985 18.125 19.4279 18.6342 20.3343 19.5407C21.2408 20.4471 21.75 21.6765 21.75 22.9583V25.375" stroke="black" stroke-width="1.83333" stroke-linecap="round" stroke-linejoin="round"/>
</g>
<defs>
<clipPath id="clip0_1046_2738">
<rect width="29" height="29" fill="white"/>
</clipPath>
</defs>
</svg>
