<svg width="40" height="40" viewBox="0 0 40 40" fill="none" xmlns="http://www.w3.org/2000/svg">
<circle cx="20" cy="20" r="20" fill="#1D9A89" fill-opacity="0.1"/>
<path fill-rule="evenodd" clip-rule="evenodd" d="M24.5002 15.063C24.5002 18.258 22.5702 21 20.0002 21C17.4282 21 15.5002 18.258 15.5002 15.062C15.5002 11.868 17.1602 10 20.0002 10C22.8402 10 24.5002 11.867 24.5002 15.063ZM12.1022 28.142C12.4872 28.6 14.1452 30 20.0002 30C25.8552 30 27.5122 28.6 27.8982 28.143C27.934 28.0991 27.9605 28.0483 27.9759 27.9938C27.9914 27.9393 27.9956 27.8822 27.9882 27.826C27.9002 26.944 27.1062 23 20.0002 23C12.8942 23 12.1002 26.944 12.0112 27.826C12.004 27.8822 12.0083 27.9394 12.024 27.9939C12.0396 28.0484 12.0662 28.0982 12.1022 28.142Z" fill="#1D9A89"/>
</svg>
