<svg width="26" height="26" viewBox="0 0 26 26" fill="none" xmlns="http://www.w3.org/2000/svg">
<g clip-path="url(#clip0_627_272)">
<path d="M10.8335 15.1667L22.7502 3.25" stroke="white" stroke-width="2" stroke-linecap="round" stroke-linejoin="round"/>
<path d="M22.75 3.25L15.7083 22.75C15.6608 22.8537 15.5844 22.9416 15.4884 23.0032C15.3924 23.0649 15.2807 23.0976 15.1666 23.0976C15.0525 23.0976 14.9408 23.0649 14.8448 23.0032C14.7488 22.9416 14.6725 22.8537 14.625 22.75L10.8333 15.1667L3.24995 11.375C3.14623 11.3275 3.05834 11.2512 2.99672 11.1551C2.9351 11.0591 2.90234 10.9474 2.90234 10.8333C2.90234 10.7192 2.9351 10.6075 2.99672 10.5115C3.05834 10.4155 3.14623 10.3392 3.24995 10.2917L22.75 3.25Z" stroke="white" stroke-width="2" stroke-linecap="round" stroke-linejoin="round"/>
</g>
<defs>
<clipPath id="clip0_627_272">
<rect width="26" height="26" fill="white"/>
</clipPath>
</defs>
</svg>
