<svg width="20" height="10" viewBox="0 0 20 10" fill="none" xmlns="http://www.w3.org/2000/svg">
<g style="mix-blend-mode:darken">
<path d="M10.3334 10C10.0476 10 9.85717 9.90476 9.6667 9.71428L5.6667 5.71429C5.28574 5.33333 5.28574 4.7619 5.6667 4.38095C6.04765 4 6.61908 4 7.00003 4.38095L10.3334 7.71429L17.7619 0.285714C18.1429 -0.0952381 18.7143 -0.0952381 19.0953 0.285714C19.4762 0.666667 19.4762 1.23809 19.0953 1.61905L11 9.71428C10.9048 9.90476 10.6191 10 10.3334 10Z" fill="#3AACFF"/>
<path d="M5.5714 10C5.28568 10 5.09521 9.90476 4.90473 9.71428L0.904733 5.71429C0.52378 5.33333 0.52378 4.7619 0.904733 4.38095C1.28569 4 1.85711 4 2.23807 4.38095L6.23807 8.38095C6.61902 8.7619 6.61902 9.33333 6.23807 9.71428C6.14283 9.90476 5.85711 10 5.5714 10ZM10.619 5.04762C10.3333 5.04762 10.1428 4.95238 9.95235 4.7619C9.5714 4.38095 9.5714 3.80952 9.95235 3.42857L13 0.285714C13.3809 -0.0952381 13.9524 -0.0952381 14.3333 0.285714C14.7143 0.666667 14.7143 1.23809 14.3333 1.61905L11.2857 4.7619C11.0952 4.95238 10.9047 5.04762 10.619 5.04762Z" fill="#3AACFF"/>
</g>
</svg>
