<svg width="24" height="24" viewBox="0 0 24 24" fill="none" xmlns="http://www.w3.org/2000/svg">
<path d="M22.6072 3.39077C20.7501 1.53362 17.7283 1.53362 15.8712 3.39077L4.64446 14.6175C4.10465 15.1572 3.80737 15.8749 3.80732 16.6383C3.80732 17.4017 4.1046 18.1194 4.64442 18.6592C5.75869 19.7735 7.57182 19.7735 8.68609 18.6591L17.6674 9.67776L16.3202 8.33057L7.33885 17.3119C6.96746 17.6832 6.36309 17.6834 5.99161 17.3119C5.8117 17.1319 5.71256 16.8927 5.71256 16.6383C5.71256 16.3838 5.8117 16.1447 5.99166 15.9647L17.2184 4.73796C18.3327 3.62369 20.1457 3.62369 21.2601 4.73796C22.3743 5.85223 22.3743 7.66532 21.2601 8.77963L10.0332 20.0063C8.17613 21.8634 5.15442 21.8635 3.29718 20.0063C1.44008 18.1492 1.44008 15.1274 3.29718 13.2703L14.524 2.04348L13.1768 0.696289L1.94998 11.9231C-0.649995 14.5231 -0.649995 18.7536 1.94998 21.3536C3.24997 22.6535 4.95759 23.3035 6.66525 23.3035C8.37287 23.3035 10.0805 22.6535 11.3804 21.3535L22.6072 10.1267C24.4643 8.26963 24.4643 5.24787 22.6072 3.39077Z" fill="#1D9A89"/>
</svg>
