<svg width="23" height="22" viewBox="0 0 23 22" fill="none" xmlns="http://www.w3.org/2000/svg">
<path d="M17.6571 21.7402C17.1102 21.7402 16.4522 21.4636 15.7012 20.918L11.5064 17.8703L7.31156 20.918C6.56062 21.4636 5.90259 21.7402 5.3557 21.7402C4.917 21.7402 4.54397 21.5593 4.30533 21.2308C3.92681 20.7098 3.91739 19.8841 4.27725 18.7765L5.89467 13.7985C5.06878 13.2105 2.96657 11.7104 1.55142 10.6687C0.124919 9.61875 0.0248874 8.79113 0.192137 8.28173C0.354325 7.78772 0.8962 7.19883 2.55637 7.19883H8.03906L9.75328 1.92309C10.2697 0.333609 10.9917 0 11.5064 0C12.0211 0 12.7431 0.333656 13.2595 1.92314L14.9737 7.19888H20.4564C22.1118 7.19888 22.6497 7.785 22.8095 8.27672C22.9751 8.78653 22.869 9.61481 21.4228 10.6656L17.1166 13.7942L18.7355 18.7766C19.0954 19.8841 19.0859 20.7098 18.7073 21.2309C18.4687 21.5593 18.0957 21.7402 17.6571 21.7402ZM11.5064 16.56C11.6272 16.56 11.7481 16.5974 11.8508 16.6719L16.3901 19.9699C17.1334 20.51 17.5238 20.5683 17.6571 20.5683C17.7402 20.5683 17.754 20.5492 17.7593 20.5419C17.8352 20.4375 17.9041 20.0096 17.6211 19.1386L15.8706 13.7514C15.8324 13.6337 15.8323 13.5069 15.8706 13.3893C15.9088 13.2716 15.9833 13.169 16.0834 13.0963L20.734 9.71742C21.5843 9.09966 21.7094 8.70328 21.6948 8.63827C21.6702 8.58619 21.3712 8.3707 20.4564 8.3707H14.548C14.4242 8.3707 14.3037 8.33152 14.2036 8.2588C14.1035 8.18607 14.0289 8.08352 13.9907 7.96584L12.145 2.2852C11.8658 1.42598 11.5769 1.19269 11.5064 1.17248C11.4359 1.19269 11.1469 1.42603 10.8678 2.2852L9.02198 7.96584C8.98374 8.08352 8.90923 8.18607 8.80913 8.2588C8.70902 8.33153 8.58847 8.3707 8.46473 8.3707H2.55632C1.59797 8.3707 1.32047 8.6018 1.30547 8.64731C1.28873 8.69836 1.38478 9.09099 2.24606 9.72492C4.02379 11.0334 6.89522 13.0721 6.924 13.0925C7.0258 13.1648 7.10187 13.2677 7.1411 13.3862C7.18033 13.5047 7.18069 13.6327 7.14211 13.7514L5.3917 19.1386C5.10862 20.0098 5.17743 20.4375 5.25332 20.542C5.25853 20.5492 5.2724 20.5683 5.35565 20.5683C5.48897 20.5683 5.87934 20.51 6.62264 19.9699L11.1619 16.6719C11.262 16.5992 11.3826 16.56 11.5064 16.56Z" fill="#90908F"/>
</svg>
