<svg width="40" height="40" viewBox="0 0 40 40" fill="none" xmlns="http://www.w3.org/2000/svg">
<circle cx="20" cy="20" r="20" fill="#1D9A89" fill-opacity="0.1"/>
<path fill-rule="evenodd" clip-rule="evenodd" d="M22.0596 8.17508C21.6309 8 21.0872 8 20 8C18.9127 8 18.3691 8 17.9403 8.17508C17.3686 8.40851 16.9143 8.85627 16.6775 9.41982C16.5694 9.67709 16.5271 9.97627 16.5105 10.4127C16.4862 11.054 16.1525 11.6477 15.5886 11.9686C15.0247 12.2895 14.3363 12.2775 13.7607 11.9776C13.3689 11.7735 13.0849 11.66 12.8048 11.6237C12.1913 11.544 11.5707 11.7079 11.0798 12.0793C10.7115 12.3578 10.4397 12.8218 9.89609 13.7499C9.35247 14.678 9.08067 15.1421 9.02009 15.5956C8.9393 16.2004 9.10557 16.8121 9.48232 17.296C9.65428 17.5169 9.89594 17.7025 10.271 17.9348C10.8224 18.2764 11.1772 18.8582 11.1772 19.5C11.1771 20.1418 10.8224 20.7235 10.271 21.0649C9.89588 21.2973 9.65417 21.4831 9.4822 21.704C9.10546 22.1879 8.9392 22.7995 9.01997 23.4043C9.08055 23.8578 9.35237 24.3219 9.89598 25.25C10.4396 26.178 10.7114 26.6422 11.0796 26.9206C11.5706 27.2919 12.1911 27.4558 12.8047 27.3762C13.0848 27.3399 13.3688 27.2264 13.7605 27.0224C14.3362 26.7225 15.0246 26.7105 15.5886 27.0313C16.1525 27.3523 16.4862 27.9459 16.5105 28.5874C16.5271 29.0237 16.5694 29.323 16.6775 29.5802C16.9143 30.1437 17.3686 30.5915 17.9403 30.825C18.3691 31 18.9127 31 20 31C21.0872 31 21.6309 31 22.0596 30.825C22.6314 30.5915 23.0857 30.1437 23.3224 29.5802C23.4306 29.323 23.473 29.0237 23.4895 28.5873C23.5138 27.9459 23.8474 27.3523 24.4113 27.0313C24.9752 26.7104 25.6637 26.7225 26.2394 27.0224C26.6311 27.2264 26.915 27.3398 27.1951 27.3761C27.8087 27.4558 28.4292 27.2919 28.9202 26.9206C29.2885 26.6421 29.5603 26.1781 30.1039 25.2499C30.6475 24.3218 30.9193 23.8578 30.9799 23.4043C31.0606 22.7995 30.8944 22.1878 30.5177 21.7039C30.3456 21.4829 30.104 21.2972 29.7288 21.0649C29.1776 20.7235 28.8228 20.1417 28.8228 19.4999C28.8228 18.8581 29.1776 18.2765 29.7288 17.9351C30.1041 17.7027 30.3458 17.5171 30.5178 17.296C30.8945 16.8121 31.0608 16.2005 30.9801 15.5957C30.9194 15.1421 30.6476 14.6781 30.104 13.75C29.5604 12.8219 29.2886 12.3579 28.9203 12.0794C28.4293 11.708 27.8088 11.5441 27.1953 11.6238C26.9152 11.6601 26.6311 11.7736 26.2395 11.9776C25.6638 12.2775 24.9753 12.2895 24.4114 11.9686C23.8476 11.6477 23.5138 11.054 23.4894 10.4126C23.4729 9.97625 23.4306 9.67708 23.3224 9.41982C23.0857 8.85627 22.6314 8.40851 22.0596 8.17508ZM20 22.95C21.9331 22.95 23.5001 21.4054 23.5001 19.5C23.5001 17.5946 21.9331 16.05 20 16.05C18.0669 16.05 16.4999 17.5946 16.4999 19.5C16.4999 21.4054 18.0669 22.95 20 22.95Z" fill="#1D9A89"/>
</svg>
