<svg width="33" height="5" viewBox="0 0 33 5" fill="none" xmlns="http://www.w3.org/2000/svg">
<path d="M31.982 0.423458L31.982 0.423327C32.0298 0.146375 32.2944 -0.0398384 32.5734 0.00734278C32.673 0.0241947 32.761 0.0685429 32.8308 0.131219C33.0415 0.320466 32.7666 0.55654 32.4873 0.509299C32.9429 0.586364 32.9877 0.594301 32.9921 0.595117C32.9924 0.595179 32.9925 0.595378 32.9925 0.595713L32.9923 0.596929L32.9917 0.600202L32.9899 0.61005C32.9884 0.61806 32.9864 0.628934 32.9837 0.642484C32.9783 0.669573 32.9703 0.707421 32.9594 0.754497C32.9377 0.848531 32.9041 0.98009 32.8554 1.1368C32.7586 1.44834 32.5993 1.86887 32.3489 2.294C31.8476 3.14482 30.9379 4.07358 29.4116 4.07358C27.955 4.07358 26.8661 3.21032 25.9409 2.47679L25.8881 2.4349C24.8968 1.64947 24.0714 1.01848 23.0039 1.01848C21.9363 1.01848 21.1109 1.64947 20.1197 2.4349L20.0668 2.47679C19.1416 3.21032 18.0527 4.07358 16.5961 4.07358C15.1396 4.07358 14.0507 3.21031 13.1254 2.47678L13.0726 2.4349C12.0813 1.64947 11.256 1.01848 10.1884 1.01848C9.12086 1.01848 8.29548 1.64947 7.30421 2.4349L7.25137 2.47678C6.32612 3.21031 5.23724 4.07358 3.78068 4.07358C2.26228 4.07358 1.30733 3.15389 0.759468 2.31364C0.48449 1.8919 0.299809 1.47408 0.183892 1.1638C0.125626 1.00783 0.083939 0.876889 0.0564236 0.783318C0.0426563 0.736479 0.0323833 0.698844 0.0253338 0.671943C0.0218052 0.658487 0.0190739 0.647701 0.0171131 0.639775L0.0147289 0.63005L0.0139622 0.626836L0.0136837 0.625648C0.0136036 0.625324 0.0137066 0.625122 0.0140308 0.625041C0.0183453 0.623974 0.062405 0.613428 0.512738 0.509296C0.23676 0.573112 -0.0519596 0.353907 0.147068 0.152355C0.212952 0.085639 0.298089 0.0361319 0.396508 0.0133739C0.671929 -0.0503125 0.947178 0.119565 1.01178 0.392901L1.01183 0.393082L1.01188 0.393308L1.01201 0.393848L1.01263 0.396345C1.01303 0.397988 1.01358 0.400191 1.01428 0.402936C1.01513 0.406261 1.01619 0.410383 1.01747 0.415269C1.02215 0.433121 1.02976 0.461124 1.04055 0.497822C1.06216 0.571326 1.09635 0.67906 1.14508 0.809511C1.24317 1.07206 1.39698 1.41802 1.62 1.76005C2.06813 2.44735 2.74715 3.05521 3.78068 3.05521C4.84823 3.05521 5.6736 2.42422 6.66488 1.63879L6.71772 1.59691C7.24456 1.17923 7.82447 0.71948 8.49509 0.401003C9.00222 0.160168 9.56123 0.000114299 10.1884 0.000114354C10.8184 0.000114409 11.3796 0.161607 11.8885 0.404246C12.5563 0.7226 13.134 1.18064 13.6591 1.59691L13.7119 1.63879C14.7032 2.42422 15.5286 3.05521 16.5961 3.05521C17.6637 3.05521 18.4891 2.42422 19.4803 1.63879L19.5332 1.59691C20.0533 1.18454 20.6252 0.731177 21.285 0.41323C21.7989 0.165601 22.3661 0.000115419 23.0039 0.000115474C23.6444 0.00011553 24.2139 0.16707 24.7296 0.416524C25.3865 0.734301 25.9562 1.18596 26.4745 1.5969L26.5274 1.63879C27.5187 2.42422 28.344 3.05521 29.4116 3.05521C30.4372 3.05521 31.0653 2.45643 31.464 1.77969C31.6635 1.44105 31.7946 1.0978 31.8758 0.83652C31.9161 0.706811 31.9433 0.59969 31.9602 0.526648C31.9686 0.490187 31.9744 0.462397 31.9779 0.444734C31.9797 0.435908 31.9809 0.429627 31.9815 0.426076L31.982 0.423458Z" fill="#1D9A89"/>
</svg>
