<svg width="16" height="15" viewBox="0 0 16 15" fill="none" xmlns="http://www.w3.org/2000/svg">
<path d="M5.49518 4.89333L1.24184 5.50999L1.16651 5.52533C1.05247 5.5556 0.948507 5.6156 0.865239 5.6992C0.78197 5.78279 0.72238 5.88699 0.692552 6.00115C0.662724 6.1153 0.663729 6.23533 0.695462 6.34898C0.727196 6.46262 0.788522 6.5658 0.873177 6.64799L3.95451 9.64733L3.22784 13.884L3.21918 13.9573C3.2122 14.0753 3.23669 14.193 3.29014 14.2983C3.3436 14.4037 3.4241 14.493 3.5234 14.557C3.6227 14.621 3.73724 14.6575 3.85528 14.6627C3.97332 14.6679 4.09062 14.6417 4.19518 14.5867L7.99918 12.5867L11.7945 14.5867L11.8612 14.6173C11.9712 14.6607 12.0908 14.674 12.2077 14.6558C12.3246 14.6377 12.4345 14.5888 12.5262 14.5142C12.618 14.4395 12.6882 14.3418 12.7297 14.2311C12.7713 14.1203 12.7826 14.0006 12.7625 13.884L12.0352 9.64733L15.1178 6.64733L15.1698 6.59066C15.2441 6.49917 15.2928 6.38963 15.311 6.27319C15.3292 6.15675 15.3161 6.03758 15.2732 5.92781C15.2303 5.81805 15.1591 5.72162 15.0668 5.64834C14.9745 5.57506 14.8645 5.52755 14.7478 5.51066L10.4945 4.89333L8.59318 1.03999C8.53816 0.92835 8.45299 0.834337 8.3473 0.768597C8.24162 0.702857 8.11964 0.668015 7.99518 0.668015C7.87072 0.668015 7.74874 0.702857 7.64305 0.768597C7.53737 0.834337 7.45219 0.92835 7.39718 1.03999L5.49518 4.89333Z" fill="#F6C944"/>
</svg>
