<svg width="35" height="35" viewBox="0 0 35 35" fill="none" xmlns="http://www.w3.org/2000/svg">
<path d="M0.943358 0.943359C0.33496 1.55176 -1.42681e-06 2.3584 -1.38916e-06 3.21973L-8.52799e-07 15.4902C-8.15149e-07 16.3516 0.33496 17.1582 0.943359 17.7734L17.2266 34.0566C17.8418 34.665 18.6484 35 19.5098 35C20.3711 35 21.1777 34.665 21.7861 34.0566L34.0566 21.7861C34.665 21.1777 35 20.3711 35 19.5098C35 18.6484 34.665 17.8418 34.0566 17.2334L17.7734 0.943359C17.165 0.33496 16.3584 -7.15048e-07 15.4971 -6.77398e-07L3.21973 -1.40739e-07C2.3584 -1.03089e-07 1.55176 0.334961 0.943358 0.943359ZM7.54004 6.51465C7.54004 7.08203 7.08203 7.54004 6.51465 7.54004C5.94726 7.54004 5.48926 7.08203 5.48926 6.51465C5.48926 5.94727 5.94726 5.48926 6.51465 5.48926C7.08203 5.48926 7.54004 5.9541 7.54004 6.51465Z" fill="#DF1818"/>
</svg>
