<svg width="28" height="28" viewBox="0 0 28 28" fill="none" xmlns="http://www.w3.org/2000/svg">
<g clip-path="url(#clip0_740_3818)">
<path d="M25.6666 4.67835C24.4999 5.25002 23.3566 5.48218 22.1666 5.83335C20.8588 4.35752 18.9198 4.27585 17.0566 4.97352C15.1934 5.67118 13.9731 7.37685 13.9999 9.33335V10.5C10.2141 10.5968 6.84242 8.87252 4.66659 5.83335C4.66659 5.83335 -0.212415 14.5052 9.33325 18.6667C7.14925 20.1215 4.97109 21.1027 2.33325 21C6.19259 23.1035 10.3984 23.8268 14.0396 22.7698C18.2163 21.5565 21.6486 18.4263 22.9658 13.7375C23.3587 12.3115 23.5538 10.8382 23.5456 9.35902C23.5456 9.06852 25.3073 6.12502 25.6666 4.67718V4.67835Z" stroke="white" stroke-width="1.75" stroke-linecap="round" stroke-linejoin="round"/>
</g>
<defs>
<clipPath id="clip0_740_3818">
<rect width="28" height="28" fill="white"/>
</clipPath>
</defs>
</svg>
