<svg width="22" height="20" viewBox="0 0 22 20" fill="none" xmlns="http://www.w3.org/2000/svg">
<path d="M10.9999 10.586L15.2429 14.828L13.8279 16.243L11.9999 14.415V20H9.99989V14.413L8.17189 16.243L6.75689 14.828L10.9999 10.586ZM10.9999 2.2216e-08C12.7169 8.17698e-05 14.374 0.631114 15.6561 1.77312C16.9382 2.91512 17.756 4.48846 17.9539 6.194C19.1982 6.53339 20.2836 7.29926 21.0205 8.35777C21.7574 9.41628 22.0989 10.7001 21.9852 11.9848C21.8716 13.2696 21.31 14.4735 20.3988 15.3862C19.4875 16.2989 18.2844 16.8623 16.9999 16.978V15C17.0015 13.4271 16.3854 11.9166 15.2842 10.7935C14.1831 9.67034 12.685 9.02452 11.1124 8.99502C9.53984 8.96553 8.01856 9.55472 6.87608 10.6357C5.7336 11.7168 5.0613 13.2032 5.00389 14.775L4.99989 15V16.978C3.71534 16.8623 2.5123 16.2989 1.60103 15.3862C0.689756 14.4735 0.128221 13.2696 0.0145682 11.9848C-0.0990847 10.7001 0.242373 9.41628 0.979263 8.35777C1.71615 7.29926 2.8016 6.53339 4.04589 6.194C4.2436 4.48838 5.0613 2.91491 6.34347 1.77287C7.62565 0.63082 9.28285 -0.000136703 10.9999 2.2216e-08Z" fill="#1D9A89"/>
</svg>
