<svg width="29" height="10" viewBox="0 0 29 10" fill="none" xmlns="http://www.w3.org/2000/svg">
<path d="M14.9981 3.26396C14.9815 4.60512 16.1606 5.35359 17.0489 5.79855C17.9615 6.25516 18.268 6.54792 18.2645 6.95617C18.2576 7.58109 17.5365 7.85684 16.8616 7.86759C15.6843 7.88639 14.9998 7.5408 14.4556 7.27938L14.0315 9.31976C14.5775 9.5785 15.5885 9.80412 16.637 9.81396C19.0979 9.81396 20.708 8.56502 20.7167 6.62849C20.7263 4.1709 17.4103 4.03482 17.4329 2.93629C17.4407 2.60323 17.7499 2.2478 18.4274 2.15738C18.7626 2.11171 19.6883 2.0768 20.7376 2.57369L21.1495 0.599557C20.5853 0.388267 19.8599 0.185929 18.9568 0.185929C16.6404 0.185929 15.0111 1.45188 14.9981 3.26396ZM25.1074 0.356035C24.6581 0.356035 24.2793 0.625521 24.1103 1.03915L20.5948 9.66893H23.054L23.5434 8.27853H26.5486L26.8325 9.66893H29L27.1085 0.356035H25.1074ZM25.4514 2.87182L26.1611 6.36886H24.2174L25.4514 2.87182ZM12.0164 0.356035L10.078 9.66893H12.4213L14.3589 0.356035H12.0164ZM8.54968 0.356035L6.11053 6.69475L5.12389 1.30505C5.00807 0.703411 4.55089 0.356035 4.0432 0.356035H0.0557323L0 0.626415C0.818568 0.809056 1.7486 1.10361 2.31202 1.41875C2.65686 1.61124 2.75527 1.77956 2.86847 2.23706L4.73725 9.66893H7.21385L11.0106 0.356035H8.54968Z" fill="url(#paint0_linear_1806_618)"/>
<defs>
<linearGradient id="paint0_linear_1806_618" x1="1333.25" y1="29.1295" x2="1361.9" y2="-959.64" gradientUnits="userSpaceOnUse">
<stop stop-color="#222357"/>
<stop offset="1" stop-color="#254AA5"/>
</linearGradient>
</defs>
</svg>
