<svg width="23" height="23" viewBox="0 0 23 23" fill="none" xmlns="http://www.w3.org/2000/svg">
<g clip-path="url(#clip0_1046_2730)">
<path d="M16.2918 7.66671V4.79171C16.2918 4.53754 16.1909 4.29379 16.0111 4.11406C15.8314 3.93434 15.5877 3.83337 15.3335 3.83337H5.75016C5.24183 3.83337 4.75432 4.03531 4.39487 4.39475C4.03543 4.7542 3.8335 5.24171 3.8335 5.75004M3.8335 5.75004C3.8335 6.25837 4.03543 6.74588 4.39487 7.10533C4.75432 7.46477 5.24183 7.66671 5.75016 7.66671H17.2502C17.5043 7.66671 17.7481 7.76767 17.9278 7.9474C18.1075 8.12712 18.2085 8.37087 18.2085 8.62504V11.5M3.8335 5.75004V17.25C3.8335 17.7584 4.03543 18.2459 4.39487 18.6053C4.75432 18.9648 5.24183 19.1667 5.75016 19.1667H17.2502C17.5043 19.1667 17.7481 19.0657 17.9278 18.886C18.1075 18.7063 18.2085 18.4625 18.2085 18.2084V15.3334" stroke="black" stroke-width="1.75" stroke-linecap="round" stroke-linejoin="round"/>
<path d="M19.1665 11.5V15.3333H15.3332C14.8248 15.3333 14.3373 15.1314 13.9779 14.772C13.6184 14.4125 13.4165 13.925 13.4165 13.4167C13.4165 12.9083 13.6184 12.4208 13.9779 12.0614C14.3373 11.7019 14.8248 11.5 15.3332 11.5H19.1665Z" stroke="black" stroke-width="1.75" stroke-linecap="round" stroke-linejoin="round"/>
</g>
<defs>
<clipPath id="clip0_1046_2730">
<rect width="23" height="23" fill="white"/>
</clipPath>
</defs>
</svg>
